# xmcd CD database file
# Copyright (C) 1993-1998 Ti Kan
# 
# Track frame offsets:
# 150
# 20852
# 39172
# 58990
# 79217
# 98347
# 120357
# 139012
# 161497
# 184715
# 
# Disc length: 2910 seconds
# 
# Revision: 0
# Processed by: cddbd v1.4b41PL1 Copyright (c) Steve Scherf et al.
# Submitted via: SuperSonic v3.01
# 
DISCID=780b5c0a
DTITLE=The Cate Brothers Band - Struck A Vein
DYEAR=1900
DGENRE=
TTITLE0=STRUCK A VEIN
TTITLE1=CAN'T KEEP UP WITH YOU
TTITLE2=SNAKE CHARMER
TTITLE3=BLUE MOTEL
TTITLE4=STRANGER AT MY DOOR
TTITLE5=ROCKET CITY BAR
TTITLE6=I MISSED MY DREAM
TTITLE7=EVEN NOW
TTITLE8=HURRY SUNDOWN
TTITLE9=I JUST WANT TO SING
EXTD=
EXTT0=
EXTT1=
EXTT2=
EXTT3=
EXTT4=
EXTT5=
EXTT6=
EXTT7=
EXTT8=
EXTT9=
PLAYORDER=
